<svg id="_ëîé_1" data-name="‘ëîé_1" xmlns="http://www.w3.org/2000/svg" viewBox="0 0 2628.59 1646.12"><defs><style>.cls-1{fill:#ebf3fa;}.cls-2{fill:#ccddfc;}.cls-3{fill:#c0d8fb;}.cls-4{fill:#77a4e5;}.cls-5{fill:#2c3a64;}.cls-6{fill:#206b9e;}.cls-7{fill:#adc8fe;}.cls-8{fill:#2a4e96;}.cls-9{fill:#1d3f77;}.cls-10{fill:#ffaa4b;}.cls-11{fill:#ffb27d;}.cls-12{fill:#ed975d;}.cls-13{fill:#afcdfb;}.cls-14{fill:#1a75bc;}.cls-15{fill:#19243f;}.cls-16{fill:#fff;}.cls-17{fill:#233862;}.cls-18{fill:#d8e6fb;}.cls-19{fill:#8cb4f4;}.cls-20{fill:#4786d1;}.cls-21{fill:#699ae2;}.cls-22{fill:#f99746;}.cls-23{fill:#e58638;}.cls-24{fill:#163560;}.cls-25{fill:#fca56b;}.cls-26{opacity:0.5;}.cls-27{fill:#2e3552;}</style></defs><title>fundo_1</title><path class="cls-1" d="M420.46,1814.48S92.12,1372.59,252.59,917.66C357.18,621.12,749.54,458.64,971,621.12c94.31,69.21,358.23-22.92,558.43-284.18,332-433.26,1370.88,48.13,1050.45,914.5-146.4,395.86,104,345.17,41.2,569.82Z" transform="translate(-208.41 -175.14)"/><rect class="cls-2" x="1727.64" y="433.02" width="45.02" height="1208.87"/><rect class="cls-2" x="1452.46" y="465.93" width="589.17" height="29.72"/><rect class="cls-2" x="1474.68" y="400.12" width="9.71" height="65.81"/><path class="cls-2" d="M1661.68,588.69c0-3.34,11.92-6,26.62-6s26.62,2.7,26.62,6-11.92,6-26.62,6S1661.68,592,1661.68,588.69Z" transform="translate(-208.41 -175.14)"/><path class="cls-2" d="M1661.68,576.62c0-3.33,11.92-6,26.62-6s26.62,2.7,26.62,6-11.92,6-26.62,6S1661.68,580,1661.68,576.62Z" transform="translate(-208.41 -175.14)"/><ellipse class="cls-2" cx="1479.89" cy="389.43" rx="26.62" ry="6.03"/><path class="cls-2" d="M1661.68,552.5c0-3.33,11.92-6,26.62-6s26.62,2.7,26.62,6-11.92,6-26.62,6S1661.68,555.83,1661.68,552.5Z" transform="translate(-208.41 -175.14)"/><rect class="cls-2" x="1463.38" y="374.65" width="32.3" height="41.04"/><rect class="cls-2" x="1741.84" y="400.12" width="9.71" height="65.81"/><path class="cls-2" d="M1928.84,588.69c0-3.34,11.92-6,26.62-6s26.62,2.7,26.62,6-11.92,6-26.62,6S1928.84,592,1928.84,588.69Z" transform="translate(-208.41 -175.14)"/><path class="cls-2" d="M1928.84,576.62c0-3.33,11.92-6,26.62-6s26.62,2.7,26.62,6-11.92,6-26.62,6S1928.84,580,1928.84,576.62Z" transform="translate(-208.41 -175.14)"/><ellipse class="cls-2" cx="1747.05" cy="389.43" rx="26.62" ry="6.03"/><path class="cls-2" d="M1928.84,552.5c0-3.33,11.92-6,26.62-6s26.62,2.7,26.62,6-11.92,6-26.62,6S1928.84,555.83,1928.84,552.5Z" transform="translate(-208.41 -175.14)"/><rect class="cls-2" x="1730.54" y="374.65" width="32.3" height="41.04"/><rect class="cls-2" x="2009.8" y="400.12" width="9.71" height="65.81"/><path class="cls-2" d="M2196.8,588.69c0-3.34,11.92-6,26.62-6s26.62,2.7,26.62,6-11.92,6-26.62,6S2196.8,592,2196.8,588.69Z" transform="translate(-208.41 -175.14)"/><path class="cls-2" d="M2196.8,576.62c0-3.33,11.92-6,26.62-6s26.62,2.7,26.62,6-11.92,6-26.62,6S2196.8,580,2196.8,576.62Z" transform="translate(-208.41 -175.14)"/><path class="cls-2" d="M2196.8,564.56c0-3.33,11.92-6,26.62-6s26.62,2.7,26.62,6-11.92,6-26.62,6S2196.8,567.89,2196.8,564.56Z" transform="translate(-208.41 -175.14)"/><path class="cls-2" d="M2196.8,552.5c0-3.33,11.92-6,26.62-6s26.62,2.7,26.62,6-11.92,6-26.62,6S2196.8,555.83,2196.8,552.5Z" transform="translate(-208.41 -175.14)"/><rect class="cls-2" x="1998.5" y="374.65" width="32.3" height="41.04"/><polygon class="cls-2" points="1750.18 628.31 1583.26 488.95 1589.42 481.63 1750.13 615.81 1913.43 477.15 1919.64 484.42 1750.18 628.31"/><path class="cls-3" d="M518.06,1555.65H463.59a.52.52,0,0,1-.52-.52V1274.35a.52.52,0,0,1,.52-.52h54.47a.52.52,0,0,1,.52.52v280.78A.52.52,0,0,1,518.06,1555.65Zm-53.94-1.05h53.41V1274.88H464.12Z" transform="translate(-208.41 -175.14)"/><path class="cls-3" d="M542.52,1742.83H438.78a.48.48,0,0,1-.39-.18.51.51,0,0,1-.13-.41l24.81-187.18a.53.53,0,0,1,.52-.46h54.47a.52.52,0,0,1,.51.46L543,1742.24a.51.51,0,0,1-.13.41A.5.5,0,0,1,542.52,1742.83Zm-103.14-1H541.92L517.6,1555.65H464.05Z" transform="translate(-208.41 -175.14)"/><path class="cls-3" d="M448.79,1817.14H428.9a.53.53,0,0,1-.39-.18.59.59,0,0,1-.13-.42l9.88-74.3a.53.53,0,0,1,.52-.46h41.13a.52.52,0,0,1,.43.24.5.5,0,0,1,.05.49l-31.12,74.31A.53.53,0,0,1,448.79,1817.14Zm-19.29-1.05h18.94l30.68-73.26H439.24Z" transform="translate(-208.41 -175.14)"/><path class="cls-3" d="M552.23,1817.14H532.35a.55.55,0,0,1-.49-.32l-31.12-74.31a.53.53,0,0,1,.05-.49.52.52,0,0,1,.44-.24h41.12a.52.52,0,0,1,.52.46l9.88,74.3a.54.54,0,0,1-.13.42A.53.53,0,0,1,552.23,1817.14Zm-19.53-1.05h18.93l-9.74-73.26H502Z" transform="translate(-208.41 -175.14)"/><path class="cls-3" d="M647.56,1555.65h-306a.52.52,0,0,1-.51-.43.51.51,0,0,1,.33-.58l122.06-46.8a.65.65,0,0,1,.19,0h54.47a.47.47,0,0,1,.17,0l129.5,46.79a.52.52,0,0,1,.34.59A.52.52,0,0,1,647.56,1555.65Zm-303.21-1.05H644.56L518,1508.85H463.69Z" transform="translate(-208.41 -175.14)"/><path class="cls-3" d="M629.4,1415.26H359.68a.52.52,0,0,1-.22-1l103.92-46.8a.49.49,0,0,1,.21,0h54.47a.48.48,0,0,1,.2,0l111.35,46.79a.53.53,0,0,1,.31.59A.53.53,0,0,1,629.4,1415.26Zm-267.28-1H626.8L518,1368.47H463.7Z" transform="translate(-208.41 -175.14)"/><path class="cls-3" d="M600.87,1274.88H388.21a.53.53,0,0,1-.52-.43.53.53,0,0,1,.32-.59l84.83-34.06a.65.65,0,0,1,.19,0h37.85a.65.65,0,0,1,.19,0l90,34.06a.53.53,0,0,1-.19,1Zm-209.95-1.05H598l-87.22-33H473.13Z" transform="translate(-208.41 -175.14)"/><path class="cls-3" d="M510.88,1240.81H473a.52.52,0,0,1-.5-.66L490.32,1175a.52.52,0,0,1,.5-.38.49.49,0,0,1,.5.37l20.06,65.14a.52.52,0,0,1-.5.68Zm-37.16-1h36.45L490.85,1177Z" transform="translate(-208.41 -175.14)"/><path class="cls-3" d="M518.06,1321.67H463.59a.53.53,0,0,1-.49-.34.51.51,0,0,1,.15-.58l26.77-23-26.77-23a.52.52,0,0,1,.34-.92h54.47a.53.53,0,0,1,.49.34.55.55,0,0,1-.15.58l-26.77,23,26.77,23a.52.52,0,0,1-.34.92Zm-53-1.05h51.63l-25.82-22.18Zm0-45.74,25.81,22.18,25.82-22.18Z" transform="translate(-208.41 -175.14)"/><path class="cls-3" d="M518.06,1368.47H463.59a.53.53,0,0,1-.49-.35.52.52,0,0,1,.15-.58l26.77-23-26.77-23a.51.51,0,0,1-.15-.58.53.53,0,0,1,.49-.34h54.47a.52.52,0,0,1,.34.92l-26.77,23,26.77,23a.55.55,0,0,1,.15.58A.54.54,0,0,1,518.06,1368.47Zm-53-1h51.63l-25.82-22.18Zm0-45.75,25.81,22.18,25.82-22.18Z" transform="translate(-208.41 -175.14)"/><path class="cls-3" d="M518.06,1415.26H463.59a.52.52,0,0,1-.49-.34.51.51,0,0,1,.15-.58l26.77-23-26.77-23a.51.51,0,0,1-.15-.58.52.52,0,0,1,.49-.34h54.47a.53.53,0,0,1,.49.34.54.54,0,0,1-.15.58l-26.77,23,26.77,23a.54.54,0,0,1,.15.58A.53.53,0,0,1,518.06,1415.26Zm-53-1h51.63L490.82,1392Zm0-45.74,25.81,22.18,25.82-22.18Z" transform="translate(-208.41 -175.14)"/><path class="cls-3" d="M518.06,1462.06H463.59a.53.53,0,0,1-.49-.34.51.51,0,0,1,.15-.58l26.77-23-26.77-23a.5.5,0,0,1-.15-.57.53.53,0,0,1,.49-.35h54.47a.52.52,0,0,1,.34.92l-26.77,23,26.77,23a.52.52,0,0,1-.34.92Zm-53-1h51.63l-25.82-22.18Zm0-45.75,25.81,22.18,25.82-22.18Z" transform="translate(-208.41 -175.14)"/><path class="cls-3" d="M518.06,1508.85H463.59a.52.52,0,0,1-.34-.92l26.77-23-26.77-23a.51.51,0,0,1-.15-.58.53.53,0,0,1,.49-.34h54.47a.52.52,0,0,1,.34.92l-26.77,23,26.77,23a.55.55,0,0,1,.15.58A.53.53,0,0,1,518.06,1508.85Zm-53-1h51.63l-25.82-22.18Zm0-45.74,25.81,22.18,25.82-22.18Z" transform="translate(-208.41 -175.14)"/><path class="cls-3" d="M524.31,1602.44H457.25a.53.53,0,0,1-.5-.35.54.54,0,0,1,.18-.59l33-25.4-26.67-20.56a.5.5,0,0,1-.17-.58.51.51,0,0,1,.49-.36h54.47a.51.51,0,0,1,.49.36.53.53,0,0,1-.17.58l-26.72,20.56,33,25.4a.52.52,0,0,1-.32.94Zm-65.52-1h64l-32-24.64Zm6.34-45.75,25.67,19.79,25.71-19.79Z" transform="translate(-208.41 -175.14)"/><path class="cls-3" d="M530.41,1649.24h-79.5a.53.53,0,0,1-.51-.38.54.54,0,0,1,.23-.59l39.12-24.94-32.78-21a.51.51,0,0,1-.22-.59.52.52,0,0,1,.5-.37h67.06a.52.52,0,0,1,.5.37.51.51,0,0,1-.22.59l-32.89,21,39,24.94a.55.55,0,0,1,.22.59A.53.53,0,0,1,530.41,1649.24Zm-77.71-1h75.92L490.72,1624Zm6.34-45.75,31.69,20.27,31.78-20.27Z" transform="translate(-208.41 -175.14)"/><path class="cls-3" d="M536.82,1696H444.56a.51.51,0,0,1-.5-.4.52.52,0,0,1,.25-.59l45.27-24.67-38.92-21.2a.53.53,0,0,1,.25-1h79.5a.52.52,0,0,1,.51.4.52.52,0,0,1-.26.59l-38.89,21.2,45.3,24.67a.52.52,0,0,1,.25.59A.51.51,0,0,1,536.82,1696Zm-90.2-1h88.14l-44.09-24Zm6.34-45.75,37.71,20.54,37.69-20.54Z" transform="translate(-208.41 -175.14)"/><path class="cls-3" d="M542.78,1742.83h-104a.52.52,0,0,1-.51-.41.52.52,0,0,1,.28-.59l51-24.32L444.34,1696a.52.52,0,0,1-.29-.58.53.53,0,0,1,.51-.41h92.26a.53.53,0,0,1,.51.41.52.52,0,0,1-.29.58L492,1717.51,543,1741.83a.52.52,0,0,1-.22,1Zm-101.69-1h99.37l-49.73-23.69Zm5.79-45.74,43.85,20.89L534.5,1696Z" transform="translate(-208.41 -175.14)"/><path class="cls-3" d="M428.21,1415.26a.56.56,0,0,1-.35-.13l-22.71-20.64.71-.78L428.14,1414l35-46.33.84.63-35.38,46.79a.51.51,0,0,1-.37.21Z" transform="translate(-208.41 -175.14)"/><path class="cls-3" d="M561.23,1415.26a.48.48,0,0,1-.38-.17l-43.18-46.79.77-.71L561.28,1414,584,1395.41l.66.81-23.14,18.92A.5.5,0,0,1,561.23,1415.26Z" transform="translate(-208.41 -175.14)"/><rect class="cls-3" x="454.92" y="1531.2" width="71.81" height="1.05" transform="translate(-1087.8 514.2) rotate(-40.65)"/><path class="cls-3" d="M607.25,1556l-39.66-29.09-49.27,28.71a.53.53,0,0,1-.61-.06l-54.46-46.79.68-.8,54.18,46.55,49.24-28.69a.51.51,0,0,1,.58,0l39.94,29.3Z" transform="translate(-208.41 -175.14)"/><path class="cls-3" d="M396,1555.88l-.81-.67,25.56-30.93a.51.51,0,0,1,.4-.19.5.5,0,0,1,.4.18l26.55,30.51-.8.69-26.14-30Z" transform="translate(-208.41 -175.14)"/><path class="cls-3" d="M463.59,1274.88a.53.53,0,0,1-.24-.06l-33-17,.48-.94,32.4,16.74,9.27-33.44a.51.51,0,0,1,.34-.36.52.52,0,0,1,.48.08l44.78,33.88,39.19-16.29.4,1-39.46,16.4a.51.51,0,0,1-.52-.06l-44.41-33.6-9.23,33.32a.56.56,0,0,1-.51.39Z" transform="translate(-208.41 -175.14)"/><path class="cls-3" d="M463.9,1274.78l-.61-.86,47.29-34.06a.53.53,0,0,1,.49-.06.5.5,0,0,1,.32.38l7.18,34.06-1,.22-7-33.28Z" transform="translate(-208.41 -175.14)"/><path class="cls-3" d="M510.49,1240.64l-18.9-21.27-18.16,21.26-.8-.68,18.25-21.37-9.34-10.52a.52.52,0,0,1,.39-.87h18.92a.52.52,0,0,1,.4.86l-9,10.52,19,21.37Zm-27.39-32.4,8.47,9.53,8.15-9.53Z" transform="translate(-208.41 -175.14)"/><path class="cls-3" d="M884.07,1346.54H786.32a1,1,0,0,1-.94-1V841.68a.94.94,0,0,1,.94-.94h97.75a.94.94,0,0,1,.94.94v503.91A1,1,0,0,1,884.07,1346.54Zm-96.8-1.89h95.86v-502H787.27Z" transform="translate(-208.41 -175.14)"/><path class="cls-3" d="M928,1682.48H741.79a.93.93,0,0,1-.7-.32.94.94,0,0,1-.23-.75l44.53-335.94a.94.94,0,0,1,.93-.82h97.75a.94.94,0,0,1,.93.82l43.91,335.94a1,1,0,0,1-.22.75A1,1,0,0,1,928,1682.48Zm-185.11-1.88h184l-43.66-334.06h-96.1Z" transform="translate(-208.41 -175.14)"/><path class="cls-3" d="M759.75,1815.83H724.07a.93.93,0,0,1-.71-.32.9.9,0,0,1-.22-.74l17.72-133.36a.93.93,0,0,1,.93-.81H815.6a.93.93,0,0,1,.79.42,1,1,0,0,1,.08.88l-55.85,133.36A.94.94,0,0,1,759.75,1815.83ZM725.14,1814h34l55.06-131.47H742.62Z" transform="translate(-208.41 -175.14)"/><path class="cls-3" d="M945.4,1815.83H909.72a.94.94,0,0,1-.87-.57L853,1681.9a.94.94,0,0,1,.87-1.3h73.81a.93.93,0,0,1,.93.81l17.73,133.36a1,1,0,0,1-.23.74A.93.93,0,0,1,945.4,1815.83Zm-35-1.88h34l-17.47-131.47H855.29Z" transform="translate(-208.41 -175.14)"/><path class="cls-3" d="M1116.49,1346.54H567.24a.94.94,0,0,1-.33-1.82l219.08-84a.92.92,0,0,1,.33-.06h97.75a1.13,1.13,0,0,1,.32,0l232.42,84a.94.94,0,0,1-.32,1.83Zm-544.16-1.89h538.79l-227.21-82.1H786.5Z" transform="translate(-208.41 -175.14)"/><path class="cls-3" d="M1083.91,1094.58H599.83a.94.94,0,0,1-.39-1.8l186.5-84a1,1,0,0,1,.38-.08h97.75a1.16,1.16,0,0,1,.37.07l199.83,84a.93.93,0,0,1,.56,1A.94.94,0,0,1,1083.91,1094.58Zm-479.7-1.88h475l-195.36-82.11H786.53Z" transform="translate(-208.41 -175.14)"/><path class="cls-3" d="M1032.71,842.62H651a.94.94,0,0,1-.35-1.81l152.24-61.14a1,1,0,0,1,.35-.06H871.2a1,1,0,0,1,.33.06L1033,840.8a.94.94,0,0,1-.33,1.82Zm-376.82-1.88h371.67L871,781.49H803.45Z" transform="translate(-208.41 -175.14)"/><path class="cls-3" d="M871.2,781.49H803.27a.94.94,0,0,1-.91-1.19l31.93-116.92a.94.94,0,0,1,1.81,0l36,116.92a1,1,0,0,1-.15.84A.93.93,0,0,1,871.2,781.49Zm-66.7-1.88h65.42L835.25,667Z" transform="translate(-208.41 -175.14)"/><path class="cls-3" d="M884.07,926.61H786.32a.94.94,0,0,1-.61-1.66l48-41.28-48-41.28a.94.94,0,0,1,.61-1.65h97.75a.94.94,0,0,1,.61,1.65l-48,41.28,48,41.28a.94.94,0,0,1-.61,1.66Zm-95.21-1.88h92.67L835.2,884.91Zm0-82.11,46.34,39.81,46.33-39.81Z" transform="translate(-208.41 -175.14)"/><path class="cls-3" d="M884.07,1010.59H786.32a.94.94,0,0,1-.61-1.65l48-41.28-48-41.28a1,1,0,0,1-.27-1,.94.94,0,0,1,.88-.61h97.75a.94.94,0,0,1,.61,1.65l-48,41.28,48,41.28a.94.94,0,0,1-.61,1.65Zm-95.21-1.88h92.67L835.2,968.9Zm0-82.1,46.34,39.81,46.33-39.81Z" transform="translate(-208.41 -175.14)"/><path class="cls-3" d="M884.07,1094.58H786.32a.94.94,0,0,1-.61-1.66l48-41.28-48-41.27a1,1,0,0,1-.27-1,1,1,0,0,1,.88-.61h97.75a.94.94,0,0,1,.61,1.66l-48,41.27,48,41.28a.94.94,0,0,1-.61,1.66Zm-95.21-1.88h92.67l-46.33-39.82Zm0-82.11,46.34,39.81,46.33-39.81Z" transform="translate(-208.41 -175.14)"/><path class="cls-3" d="M884.07,1178.56H786.32a.94.94,0,0,1-.88-.61,1,1,0,0,1,.27-1l48-41.28-48-41.28a1,1,0,0,1-.27-1,.94.94,0,0,1,.88-.61h97.75a.94.94,0,0,1,.61,1.65l-48,41.28,48,41.28a.94.94,0,0,1-.61,1.65Zm-95.21-1.88h92.67l-46.33-39.81Zm0-82.1,46.34,39.81,46.33-39.81Z" transform="translate(-208.41 -175.14)"/><path class="cls-3" d="M884.07,1262.55H786.32a1,1,0,0,1-.88-.61,1,1,0,0,1,.27-1l48-41.27-48-41.28a.94.94,0,0,1,.61-1.66h97.75a.94.94,0,0,1,.61,1.66l-48,41.28,48,41.27a.94.94,0,0,1-.61,1.66Zm-95.21-1.88h92.67l-46.33-39.81Zm0-82.11,46.34,39.82,46.33-39.82Z" transform="translate(-208.41 -175.14)"/><path class="cls-3" d="M895.3,1430.52H774.94a.94.94,0,0,1-.57-1.69l59.25-45.6-47.87-36.89a.94.94,0,0,1,.57-1.69h97.75a1,1,0,0,1,.89.64,1,1,0,0,1-.31,1l-47.95,36.89,59.17,45.6a.94.94,0,0,1-.57,1.69Zm-117.59-1.88H892.53l-57.37-44.22Zm11.38-82.1,46.07,35.51,46.15-35.51Z" transform="translate(-208.41 -175.14)"/><path class="cls-3" d="M906.25,1514.51H763.56a.93.93,0,0,1-.9-.68.94.94,0,0,1,.39-1.06L833.27,1468l-58.84-37.63a.94.94,0,0,1,.51-1.73H895.3a.94.94,0,0,1,.5,1.73l-59,37.64,70,44.76a.94.94,0,0,1,.39,1.06A.93.93,0,0,1,906.25,1514.51Zm-139.47-1.89H903l-68-43.5Zm11.38-82.1L835,1466.89l57.05-36.37Z" transform="translate(-208.41 -175.14)"/><path class="cls-3" d="M917.74,1598.49H752.17a.94.94,0,0,1-.91-.71,1,1,0,0,1,.46-1.06L833,1552.44l-69.85-38a.93.93,0,0,1-.46-1.06.94.94,0,0,1,.91-.71H906.25a.94.94,0,0,1,.91.71.93.93,0,0,1-.46,1.06l-69.8,38,81.29,44.28a.94.94,0,0,1-.45,1.77Zm-161.87-1.88H914.05l-79.12-43.1Zm11.38-82.1,67.68,36.86,67.63-36.86Z" transform="translate(-208.41 -175.14)"/><path class="cls-3" d="M928.44,1682.48H741.79a.94.94,0,0,1-.4-1.79L832.85,1637l-81.08-38.63a.94.94,0,0,1-.51-1.06.92.92,0,0,1,.91-.73H917.74a.94.94,0,0,1,.41,1.79L837.22,1637l91.63,43.66a.92.92,0,0,1,.51,1A1,1,0,0,1,928.44,1682.48ZM746,1680.6H924.28L835,1638.07Zm10.39-82.11L835,1636l78.56-37.5Z" transform="translate(-208.41 -175.14)"/><path class="cls-3" d="M722.83,1094.58a1,1,0,0,1-.64-.25l-40.74-37,1.26-1.39,40,36.35,62.87-83.17,1.51,1.14-63.5,84a.92.92,0,0,1-.67.36Z" transform="translate(-208.41 -175.14)"/><path class="cls-3" d="M961.56,1094.58a.93.93,0,0,1-.69-.3l-77.49-84,1.38-1.28,76.89,83.34,40.84-33.41,1.19,1.46-41.52,34A1,1,0,0,1,961.56,1094.58Z" transform="translate(-208.41 -175.14)"/><rect class="cls-3" x="770.76" y="1302.66" width="128.87" height="1.88" transform="translate(-855.81 682.55) rotate(-40.61)"/><path class="cls-3" d="M1044.15,1347.1,973,1294.88l-88.42,51.53a1,1,0,0,1-1.09-.1l-97.75-84,1.23-1.43,97.24,83.55,88.37-51.5a.94.94,0,0,1,1,0l71.68,52.59Z" transform="translate(-208.41 -175.14)"/><path class="cls-3" d="M664.94,1346.94l-1.45-1.2,45.87-55.5a1,1,0,0,1,.72-.35.93.93,0,0,1,.72.33L758.44,1345l-1.42,1.23-46.91-53.92Z" transform="translate(-208.41 -175.14)"/><path class="cls-3" d="M786.32,842.62a1,1,0,0,1-.43-.1L726.72,812l.86-1.67,58.15,30,16.63-60a1,1,0,0,1,.61-.64.94.94,0,0,1,.87.14l80.37,60.8,70.33-29.24.73,1.74-70.84,29.45a1,1,0,0,1-.93-.12l-79.69-60.3-16.58,59.8a.9.9,0,0,1-.53.61A.84.84,0,0,1,786.32,842.62Z" transform="translate(-208.41 -175.14)"/><path class="cls-3" d="M786.87,842.44l-1.1-1.52,84.88-61.14a.94.94,0,0,1,1.47.57L885,841.49l-1.84.38-12.58-59.71Z" transform="translate(-208.41 -175.14)"/><path class="cls-3" d="M870.49,781.17,836.57,743,804,781.16l-1.44-1.22,32.76-38.35-16.78-18.88a.93.93,0,0,1-.15-1,.92.92,0,0,1,.85-.55h34a.94.94,0,0,1,.85.54,1,1,0,0,1-.14,1L837.8,741.56l34.1,38.36ZM821.33,723l15.21,17.11L851.16,723Z" transform="translate(-208.41 -175.14)"/><path class="cls-4" d="M1389.83,657.65c-1.8-7.08-2.82-7.76-2.82-7.76s-70.48,3.94-77.11,4-97.07-24.35-97.07-24.35l-46.5,49.67s127.24,12.62,144,12.09c27.74-.88,79.34-23.39,79.34-23.39A20.28,20.28,0,0,0,1389.83,657.65Z" transform="translate(-208.41 -175.14)"/><path class="cls-5" d="M1369,1071.3s-1.28,28.44,4.43,30.9,72-2.14,72-2.14-.47-8.3-12-9.51-27.5-9-36.21-21.75C1385.12,1050.93,1369,1071.3,1369,1071.3Z" transform="translate(-208.41 -175.14)"/><path class="cls-6" d="M1259.44,822.59s92.69,79.79,104.62,105.54,48.73,141.8,48.73,141.8-10.15,6.11-30.84,7.25a30.94,30.94,0,0,1-15.74-3.26s-53.68-105.29-58.37-115.45-124-49.74-156.82-109.72Z" transform="translate(-208.41 -175.14)"/><rect class="cls-7" x="1171.45" y="173.89" width="54.64" height="1466.33"/><rect class="cls-7" x="837.5" y="213.8" width="715" height="36.05"/><rect class="cls-7" x="864.46" y="133.98" width="11.79" height="79.82"/><ellipse class="cls-7" cx="870.78" cy="150.27" rx="32.31" ry="7.31"/><path class="cls-7" d="M1046.89,310.77c0-4,14.46-7.31,32.31-7.31s32.31,3.27,32.31,7.31-14.47,7.32-32.31,7.32S1046.89,314.81,1046.89,310.77Z" transform="translate(-208.41 -175.14)"/><path class="cls-7" d="M1046.89,296.14c0-4,14.46-7.31,32.31-7.31s32.31,3.27,32.31,7.31-14.47,7.32-32.31,7.32S1046.89,300.18,1046.89,296.14Z" transform="translate(-208.41 -175.14)"/><ellipse class="cls-7" cx="870.78" cy="106.37" rx="32.31" ry="7.31"/><rect class="cls-7" x="850.75" y="103.08" width="39.2" height="49.78"/><rect class="cls-7" x="1188.68" y="133.98" width="11.79" height="79.82"/><ellipse class="cls-7" cx="1195" cy="150.27" rx="32.31" ry="7.31"/><path class="cls-7" d="M1371.11,310.77c0-4,14.46-7.31,32.3-7.31s32.31,3.27,32.31,7.31-14.46,7.32-32.31,7.32S1371.11,314.81,1371.11,310.77Z" transform="translate(-208.41 -175.14)"/><path class="cls-7" d="M1371.11,296.14c0-4,14.46-7.31,32.3-7.31s32.31,3.27,32.31,7.31-14.46,7.32-32.31,7.32S1371.11,300.18,1371.11,296.14Z" transform="translate(-208.41 -175.14)"/><ellipse class="cls-7" cx="1195" cy="106.37" rx="32.31" ry="7.31"/><rect class="cls-7" x="1174.97" y="103.08" width="39.2" height="49.78"/><rect class="cls-7" x="1513.87" y="133.98" width="11.79" height="79.82"/><path class="cls-7" d="M1696.3,325.4c0-4,14.46-7.31,32.31-7.31s32.31,3.27,32.31,7.31-14.47,7.32-32.31,7.32S1696.3,329.44,1696.3,325.4Z" transform="translate(-208.41 -175.14)"/><path class="cls-7" d="M1696.3,310.77c0-4,14.46-7.31,32.31-7.31s32.31,3.27,32.31,7.31-14.47,7.32-32.31,7.32S1696.3,314.81,1696.3,310.77Z" transform="translate(-208.41 -175.14)"/><path class="cls-7" d="M1696.3,296.14c0-4,14.46-7.31,32.31-7.31s32.31,3.27,32.31,7.31-14.47,7.32-32.31,7.32S1696.3,300.18,1696.3,296.14Z" transform="translate(-208.41 -175.14)"/><path class="cls-7" d="M1696.3,281.51c0-4,14.46-7.31,32.31-7.31s32.31,3.27,32.31,7.31-14.47,7.32-32.31,7.32S1696.3,285.55,1696.3,281.51Z" transform="translate(-208.41 -175.14)"/><rect class="cls-7" x="1500.16" y="103.08" width="39.2" height="49.78"/><polygon class="cls-7" points="1198.8 410.77 996.24 241.72 1003.71 232.84 1198.74 395.61 1396.92 227.41 1404.46 236.23 1198.8 410.77"/><rect class="cls-8" x="1126.11" y="326.52" width="146.14" height="179.02"/><path class="cls-9" d="M1267.46,805.34a5.38,5.38,0,0,0-1.64-.44l-3.78-.41a5.92,5.92,0,0,0-5.16,2.07l-5.66,6.71,7.89,11,9.1-5.79a5.4,5.4,0,0,0,2.49-4,3.35,3.35,0,0,0,0-.63v-3.49A5.46,5.46,0,0,0,1267.46,805.34Zm-.6,11-7.09,4.52-5.4-7.51,4.42-5.25a3.41,3.41,0,0,1,3-1.18l3.8.41a3,3,0,0,1,2.69,3v3.49a2.73,2.73,0,0,1-.27,1.23A2.82,2.82,0,0,1,1266.86,816.39Z" transform="translate(-208.41 -175.14)"/><path class="cls-10" d="M1434.5,751.58v13.26s-139.2,43.53-163.8,49.65c-1.17.29-2.08.5-2.71.61h0a2.73,2.73,0,0,0,.27-1.23v-3.49a3,3,0,0,0-2.69-3l-3.8-.41,5.7-1.63C1293.78,797.75,1403.77,765.78,1434.5,751.58Z" transform="translate(-208.41 -175.14)"/><path class="cls-5" d="M1327.34,1093.72s-6,27.84-.76,31.21,71.4,9.75,71.4,9.75.92-8.26-10.25-11.36-25.63-13.35-32.1-27.41C1346.6,1076.29,1327.34,1093.72,1327.34,1093.72Z" transform="translate(-208.41 -175.14)"/><path class="cls-11" d="M1169.73,610.16s31.49,35.41,55.21,31c0,0-6.48-7.56-13.71-14.32-2.16-2-1.51-6.79-.73-9.63.44-1.6.84-3.12,1.2-4.54a141.4,141.4,0,0,0,3-14.65l-16-16.31-10.85-11.06c-.46,5.35-1,10.33-2.79,14.51C1178.36,601,1169.73,610.16,1169.73,610.16Z" transform="translate(-208.41 -175.14)"/><path class="cls-12" d="M1185.1,585.11s6,20.47,26.6,27.51a141.4,141.4,0,0,0,3-14.65l-16-16.31C1189.86,582.74,1185.1,585.11,1185.1,585.11Z" transform="translate(-208.41 -175.14)"/><path class="cls-11" d="M1221.78,598.26s-38.52,1.75-39.24-22.16-6.19-39.79,18.37-41.92,29.62,6.84,31.81,14.77S1231.78,597.18,1221.78,598.26Z" transform="translate(-208.41 -175.14)"/><path class="cls-13" d="M1250.55,733.18c-.15-2.37-.26-4.77-.35-7.22a216,216,0,0,0-4.35-36.55,165.7,165.7,0,0,0-7.2-25.23A80.18,80.18,0,0,0,1223,638c0-.06-10.36-10.58-10.41-10.61-24.82,2.58-42.86-17.25-42.86-17.25s-59.31,51.24-43.84,161.46c0,0,1.49,8,4.11,19.44.57,2.48,1.19,5.14,1.87,7.92C1136.43,817.86,1252.44,764.76,1250.55,733.18Z" transform="translate(-208.41 -175.14)"/><path class="cls-6" d="M1161.08,540.56c-.44-.35-1.32-.54-3.17-.31a7.5,7.5,0,0,1,3.25-1.59c-.08-2.65.47-7.45,4.66-9.34a5.64,5.64,0,0,0-2,4.49c4.14-6.18,14.35-12,44.94-14.89,40.32-3.86,31.81,24.21,27.21,28.19s-19-2.14-28.5.32-8.78,16.81-11.69,19.31-2.24-1.13-7-2.36-3.86,6.22-1.73,10.79-2.79,12-2.79,12l-7.3-5.57c-7.3-5.58-18.09-32.76-16.39-39.27C1160.78,541.73,1160.92,541.15,1161.08,540.56Z" transform="translate(-208.41 -175.14)"/><path class="cls-4" d="M1148,706.31s16.64,56,35.5,65.07,17.76-38.87,17.76-38.87Z" transform="translate(-208.41 -175.14)"/><path class="cls-14" d="M1272.46,841.67c-29.91-13.26-20-76.91-21.91-108.49-.15-2.37-.26-4.77-.35-7.22a216,216,0,0,0-4.35-36.55,165.7,165.7,0,0,0-7.2-25.23l-41.35,6.72a15.9,15.9,0,0,0-13.36,16.26c.75,20.56-1.13,58.71-22.87,78.17-15.66,14-25.34,21.64-31.07,25.73.57,2.48,1.19,5.14,1.87,7.92,4.56,18.88,9.65,42.89,20.5,56.64C1160.74,866.22,1275.65,843.08,1272.46,841.67Z" transform="translate(-208.41 -175.14)"/><path class="cls-14" d="M1165.67,614.19s11.41,4.27,26.33,23.95a113,113,0,0,1,17.34,32.74l-6.86,1.52s-10.17-34.95-41-53.51C1161.53,618.89,1161.61,618.21,1165.67,614.19Z" transform="translate(-208.41 -175.14)"/><path class="cls-11" d="M1345.36,643s7.12-16.22,9-18.43,11.94-9.86,12.68-9.48,1,3.33-.78,5c-1.28,1.21-2.77,2.32-2,2.44s4.34-5.49,7.15-3.65,9.46,10.05,5.19,16.49-20.53,13.28-21.4,14.26C1347.88,657.92,1345.36,643,1345.36,643Z" transform="translate(-208.41 -175.14)"/><path class="cls-13" d="M1345.36,643s-74.38,65.74-81.42,66.52c-11.22,1.23-73.93-55.81-73.93-55.81s-8.31-14.23-26.7-7.25c-16,6.07-22.94,25.25-22.94,25.25s-5.41,18.91,4,30.2c20.8,25,100.22,50.22,123.9,47.2C1298.8,745.2,1355.4,662,1355.4,662s3.42-7.44-.17-12.39C1352.07,645.28,1345.36,643,1345.36,643Z" transform="translate(-208.41 -175.14)"/><path class="cls-14" d="M1363.39,1096.85s-11,4.36-31.62,2.08a31,31,0,0,1-15-5.81s-3.21-10.19-7.78-24.74c-.7-2.25-1.43-4.59-2.21-7-1-3.18-2-6.52-3.11-9.93-.72-2.32-1.46-4.67-2.19-7-10-31.92-21.5-68.78-23.12-74.73-3-10.79-114.07-69.48-136.44-134l110.85-22.27s78.59,108.3,86.08,135.66c4,14.6,10.71,55.74,16.1,90.92q.54,3.49,1,6.88c.52,3.44,1,6.8,1.52,10,.35,2.37.69,4.65,1,6.87C1361.44,1083,1363.39,1096.85,1363.39,1096.85Z" transform="translate(-208.41 -175.14)"/><path class="cls-10" d="M1252.79,813.34s-42.66,33.58-104.79,39.38c0,0,5.34,14,16.53,20.69,0,0,66.68-10.06,94.91-50.82Z" transform="translate(-208.41 -175.14)"/><path class="cls-15" d="M1398,1137.79a2.82,2.82,0,0,1-.41,0l-89.51-11.72a3.11,3.11,0,1,1,.81-6.16l88.82,11.62,35.86-11.5a3.11,3.11,0,1,1,1.91,5.92l-36.53,11.71A3.09,3.09,0,0,1,1398,1137.79Z" transform="translate(-208.41 -175.14)"/><path class="cls-16" d="M1356,1046.79c-14.38,4.1-29,5-39.73,5-5.24,0-9.6-.23-12.6-.41-.72-2.32-1.46-4.67-2.19-7l.91.06c7.7.5,30.62,2,52.56-4.53Q1355.51,1043.41,1356,1046.79Z" transform="translate(-208.41 -175.14)"/><path class="cls-16" d="M1358.57,1063.69c-14.26,4-28.69,5-39.39,5-4,0-7.41-.13-10.17-.26-.7-2.25-1.43-4.59-2.21-7,8.84.53,30.18,1.48,50.74-4.53C1357.89,1059.19,1358.23,1061.47,1358.57,1063.69Z" transform="translate(-208.41 -175.14)"/><rect class="cls-17" x="1159.67" y="326.52" width="112.58" height="179.02"/><rect class="cls-18" x="2118.04" y="799.33" width="31.43" height="846.79"/><rect class="cls-18" x="1925.92" y="822.37" width="411.33" height="20.82"/><rect class="cls-18" x="1941.43" y="776.28" width="6.78" height="46.1"/><ellipse class="cls-18" cx="1945.07" cy="785.68" rx="18.59" ry="4.22"/><path class="cls-18" d="M2134.9,952.37c0-2.33,8.32-4.22,18.58-4.22s18.59,1.89,18.59,4.22-8.32,4.23-18.59,4.23S2134.9,954.71,2134.9,952.37Z" transform="translate(-208.41 -175.14)"/><path class="cls-18" d="M2134.9,943.92c0-2.33,8.32-4.22,18.58-4.22s18.59,1.89,18.59,4.22-8.32,4.23-18.59,4.23S2134.9,946.26,2134.9,943.92Z" transform="translate(-208.41 -175.14)"/><path class="cls-18" d="M2134.9,935.48c0-2.34,8.32-4.23,18.58-4.23s18.59,1.89,18.59,4.23-8.32,4.22-18.59,4.22S2134.9,937.81,2134.9,935.48Z" transform="translate(-208.41 -175.14)"/><rect class="cls-18" x="1933.55" y="758.44" width="22.55" height="28.75"/><rect class="cls-18" x="2127.95" y="776.28" width="6.78" height="46.1"/><path class="cls-18" d="M2321.42,960.82c0-2.33,8.32-4.22,18.58-4.22s18.59,1.89,18.59,4.22-8.32,4.23-18.59,4.23S2321.42,963.16,2321.42,960.82Z" transform="translate(-208.41 -175.14)"/><path class="cls-18" d="M2321.42,952.37c0-2.33,8.32-4.22,18.58-4.22s18.59,1.89,18.59,4.22-8.32,4.23-18.59,4.23S2321.42,954.71,2321.42,952.37Z" transform="translate(-208.41 -175.14)"/><path class="cls-18" d="M2321.42,943.92c0-2.33,8.32-4.22,18.58-4.22s18.59,1.89,18.59,4.22-8.32,4.23-18.59,4.23S2321.42,946.26,2321.42,943.92Z" transform="translate(-208.41 -175.14)"/><path class="cls-18" d="M2321.42,935.48c0-2.34,8.32-4.23,18.58-4.23s18.59,1.89,18.59,4.23-8.32,4.22-18.59,4.22S2321.42,937.81,2321.42,935.48Z" transform="translate(-208.41 -175.14)"/><rect class="cls-18" x="2120.07" y="758.44" width="22.55" height="28.75"/><rect class="cls-18" x="2315.03" y="776.28" width="6.78" height="46.1"/><path class="cls-18" d="M2508.5,960.82c0-2.33,8.32-4.22,18.58-4.22s18.59,1.89,18.59,4.22-8.32,4.23-18.59,4.23S2508.5,963.16,2508.5,960.82Z" transform="translate(-208.41 -175.14)"/><path class="cls-18" d="M2508.5,952.37c0-2.33,8.32-4.22,18.58-4.22s18.59,1.89,18.59,4.22-8.32,4.23-18.59,4.23S2508.5,954.71,2508.5,952.37Z" transform="translate(-208.41 -175.14)"/><path class="cls-18" d="M2508.5,943.92c0-2.33,8.32-4.22,18.58-4.22s18.59,1.89,18.59,4.22-8.32,4.23-18.59,4.23S2508.5,946.26,2508.5,943.92Z" transform="translate(-208.41 -175.14)"/><path class="cls-18" d="M2508.5,935.48c0-2.34,8.32-4.23,18.58-4.23s18.59,1.89,18.59,4.23-8.32,4.22-18.59,4.22S2508.5,937.81,2508.5,935.48Z" transform="translate(-208.41 -175.14)"/><rect class="cls-18" x="2307.15" y="758.44" width="22.55" height="28.75"/><polygon class="cls-18" points="2133.78 936.13 2017.24 838.5 2021.54 833.37 2133.74 927.37 2247.75 830.24 2252.09 835.33 2133.78 936.13"/><rect class="cls-7" x="1032.61" y="1045.03" width="245.58" height="593.57"/><rect class="cls-19" x="1184.79" y="1045.03" width="93.4" height="593.57"/><rect class="cls-20" x="1111.98" y="1065.53" width="49.72" height="88.25"/><rect class="cls-21" x="1099.39" y="1065.53" width="49.72" height="88.25"/><path class="cls-1" d="M1257.58,1441.09l-.3-1.21c.15,0,15.65-4.3,18.07-29.74,2-21.11,5.44-32.14,11.46-36.88a12.5,12.5,0,0,1,9.85-2.39c4.8.69,9.07,5.05,14,10.09,8.87,9.06,19.9,20.34,39.41,15.06,29.93-8.1,42.42-40.17,42.54-40.49l1.17.44c-.13.33-12.85,33-43.38,41.25-20.22,5.47-31.54-6.09-40.63-15.38-4.79-4.89-8.92-9.11-13.3-9.73a11.07,11.07,0,0,0-8.89,2.13c-5.66,4.45-9,15.56-11,36-1.31,13.74-6.37,21.37-10.39,25.36A20.63,20.63,0,0,1,1257.58,1441.09Z" transform="translate(-208.41 -175.14)"/><polygon class="cls-1" points="1184.79 1284.71 1111.35 1284.71 1111.35 1153.79 1112.6 1153.79 1112.6 1283.46 1184.79 1283.46 1184.79 1284.71"/><polygon class="cls-1" points="1184.79 1270.49 1123.63 1270.49 1123.63 1153.79 1124.88 1153.79 1124.88 1269.24 1184.79 1269.24 1184.79 1270.49"/><polygon class="cls-1" points="1184.79 1254.11 1140.58 1254.11 1140.58 1153.79 1141.83 1153.79 1141.83 1252.86 1184.79 1252.86 1184.79 1254.11"/><polygon class="cls-1" points="1184.79 1492.02 1075.67 1492.02 1075.67 1357.77 1184.79 1357.77 1184.79 1359.02 1076.92 1359.02 1076.92 1490.77 1184.79 1490.77 1184.79 1492.02"/><polygon class="cls-1" points="1184.79 1477.04 1092.89 1477.04 1092.89 1369.01 1184.79 1369.01 1184.79 1370.26 1094.14 1370.26 1094.14 1475.79 1184.79 1475.79 1184.79 1477.04"/><polygon class="cls-1" points="1184.79 1457.27 1111.35 1457.27 1111.35 1385.87 1184.79 1385.87 1184.79 1387.12 1112.6 1387.12 1112.6 1456.03 1184.79 1456.03 1184.79 1457.27"/><rect class="cls-21" x="1065.7" y="1531.78" width="119.09" height="73.78"/><polygon class="cls-21" points="1083.79 1531.78 1082.54 1531.78 1082.54 1508.26 1184.79 1508.26 1184.79 1509.51 1083.79 1509.51 1083.79 1531.78"/><polygon class="cls-21" points="1110.62 1531.78 1109.37 1531.78 1109.37 1519.7 1184.79 1519.7 1184.79 1520.95 1110.62 1520.95 1110.62 1531.78"/><path class="cls-7" d="M1338.54,1248.55a1.95,1.95,0,1,1-2-2A1.95,1.95,0,0,1,1338.54,1248.55Z" transform="translate(-208.41 -175.14)"/><path class="cls-22" d="M1345.8,1248.55a2,2,0,1,1-2-2A2,2,0,0,1,1345.8,1248.55Z" transform="translate(-208.41 -175.14)"/><path class="cls-16" d="M1352.35,1248.55a1.95,1.95,0,1,1-1.95-2A1.95,1.95,0,0,1,1352.35,1248.55Z" transform="translate(-208.41 -175.14)"/><rect class="cls-20" x="1107.5" y="1078.02" width="38.38" height="21.02"/><path class="cls-11" d="M1293.36,1276.12s6.68-13.88,12.1-18.19,19.9-3.26,20.46-2.16c1.72,3.42-11.62,8.74-13.16,11.87s4.85,2.82,0,8.26c-4.15,4.6-14.07,9-14.07,9Z" transform="translate(-208.41 -175.14)"/><path class="cls-23" d="M1299.13,1274.54c-3.51-5.47-4.56-5.75-4.56-5.75s-58.11,23.19-63.66,25.12-88.46,6.81-88.46,6.81l-25,55s110.49-25.21,124.45-30.4c23.06-8.56,60-42.1,60-42.1A18.13,18.13,0,0,0,1299.13,1274.54Z" transform="translate(-208.41 -175.14)"/><path class="cls-24" d="M1154.77,1789s1.26,20.41,5,25.21h58.29c-.37-2-2-7.06-9.31-8.33-9.21-1.61-24.62-8.08-30.2-20.26C1172.73,1772.82,1154.77,1789,1154.77,1789Z" transform="translate(-208.41 -175.14)"/><path class="cls-24" d="M1051.15,1780.62s-3.67,31,1.32,31.41c.67.06,24,0,30.36,1,10.37,1.55,27.66.2,27.66.2a2.74,2.74,0,0,0,2.48-4.13c-1.21-2-3.52-4.23-7.92-5.08-9.18-1.77-24.47-8.51-29.84-20.79C1069.57,1770.29,1051.15,1780.62,1051.15,1780.62Z" transform="translate(-208.41 -175.14)"/><path class="cls-6" d="M1182.17,1517.41s-14.65,51.3-56.66,140.4c-13.75,29.19-23,52.8-29.11,71.39q-1.2,3.6-2.23,6.93-1.68,5.37-3,10.08c-.67,2.41-1.28,4.7-1.85,6.86-5.5,21.44-5.39,31.19-5.39,31.19a51.25,51.25,0,0,1-20.93,2.46c-5.81-.59-18.54-6-18.54-6s1.37-14.37,4.14-34.68c.32-2.23.64-4.53,1-6.9.45-3.17.93-6.45,1.45-9.81.35-2.26.71-4.56,1.08-6.87,4.88-30.25,12.12-65.38,21.78-87.29,19.85-45,23.9-168,23.9-168Z" transform="translate(-208.41 -175.14)"/><path class="cls-14" d="M1205.61,1491.23a1329.48,1329.48,0,0,1-12.48,159c-4.74,33.69-7.3,60.69-8.61,81.6-.15,2.46-.29,4.83-.4,7.11-.2,3.69-.35,7.16-.48,10.4-.08,2.46-.16,4.8-.21,7-.55,22.5.61,32.84.61,32.84a16.3,16.3,0,0,1-2.57,1.16h0c-3,1.11-8.51,2.61-16.88,2.61a40,40,0,0,1-9.58-1.14,28.94,28.94,0,0,1-7.11-2.61s-2.21-13-4.71-31.84c-.32-2.26-.62-4.59-.93-7-.41-3.2-.81-6.52-1.22-10-.26-2.3-.54-4.62-.8-7-3.32-30-5.89-65.52-3.12-89.55a114.77,114.77,0,0,0,.66-12.71h0c0-21.64-4.39-50.77-9.7-77.93a1.93,1.93,0,0,0,0-.23c-5.47-28-11.86-53.76-15.31-67.13-1.56-6.05-2.53-9.55-2.53-9.55l2.91-.1h0l23-.74,62.65-2,3.86-.12,3.12-.1S1205.8,1479.72,1205.61,1491.23Z" transform="translate(-208.41 -175.14)"/><path class="cls-11" d="M1140.77,1287.32l15.52,11.5,22.43-4.72c-.31-2-1.79-10.53-3.14-18.21q-.12-.69-.24-1.35c-1.15-6.54-2.15-12.16-2.15-12.16l-21-10.44-7.81-3.9c0,.14.6,7.26.69,8.3C1146.58,1274.79,1140.77,1287.32,1140.77,1287.32Z" transform="translate(-208.41 -175.14)"/><path class="cls-23" d="M1177.15,1281.52c-.49-.21-30.51-9.07-33.77-8s-5.19,7.39-5.19,7.39l46.35,13.21S1183.43,1284.16,1177.15,1281.52Z" transform="translate(-208.41 -175.14)"/><path class="cls-10" d="M1096.31,1483.06c5.08,23.23,111.18-49.65,109.77-63.82-.16-1.56-.31-3.13-.47-4.69-2-19.73-3.84-39-4-51.64a178.3,178.3,0,0,0-3.62-32.27c-1.84-9.37-4.11-17.88-6.08-24.51a27.12,27.12,0,0,0-7.41-12,26.73,26.73,0,0,0-8.47-5.4,23.35,23.35,0,0,0-2.63-.92c-12.78-3.71-30.46-8.3-35.25-6.9-13,3.83-22.63,26.69-29.46,55.84C1096,1391.32,1093,1467.93,1096.31,1483.06Z" transform="translate(-208.41 -175.14)"/><path class="cls-25" d="M1146.69,1256.66c4.6,8.81,21.74,16.43,28.89,19.23q-.12-.69-.24-1.35c-1.15-6.54-2.15-12.16-2.15-12.16l-21-10.44C1147.61,1251.87,1144.79,1253,1146.69,1256.66Z" transform="translate(-208.41 -175.14)"/><path class="cls-11" d="M1183.37,1261.16s-37.8,11.8-44.78-11.87-16.56-38.08,7.28-46.61,31.21-.89,35.46,6.44S1193,1257.48,1183.37,1261.16Z" transform="translate(-208.41 -175.14)"/><path class="cls-24" d="M1179.85,1206.84s-2.41,27.54-8.1,26.34-10.86-2.08-10,6.22,1.1,18.28-16.44,19.75-35.14-44.19-30.32-52.76C1128.88,1181.67,1200,1176.68,1179.85,1206.84Z" transform="translate(-208.41 -175.14)"/><path class="cls-23" d="M1202.88,1473.25c-10.51,3.8.18-10.44,0-13.41-.82-13.06,4.3-29.57,2.73-45.29l-64.17-38.37S1126.21,1472.64,1202.88,1473.25Z" transform="translate(-208.41 -175.14)"/><path class="cls-14" d="M1096.31,1483.06c27.4,50.8,31.76,70.2,31.76,70.2,23.84-2.72,64.7-49.62,77.66-62.14,0,0,1.76-57.71.35-71.88l-19.81-.57s-35.79,9.07-45.08-3.25-5.26-72.78-5.26-72.78l-27.2-5.89C1096,1391.32,1089,1469.43,1096.31,1483.06Z" transform="translate(-208.41 -175.14)"/><path class="cls-11" d="M1258.86,1385.72s13-8.83,15.52-9.6,10.58-1.6,11-1,1.48,2.6.07,3.26-3.18.43-2.65.89,5.86-2.07,7.09.65,2.31,12-3.95,14.86-21.69.27-22.8.6C1253.65,1398.16,1258.86,1385.72,1258.86,1385.72Z" transform="translate(-208.41 -175.14)"/><path class="cls-10" d="M1259,1383.33s-63.64,10.83-69.28,8.08c-9-4.38,3.49-69,3.49-69s.54-14.64-16.56-18.1c-14.85-3-29.19,8.13-29.19,8.13s-13,11.67-11.37,24.62c3.7,28.69,9.44,87,28.62,96,24.74,11.54,96.32-32,96.32-32s2.39-2.92,2-8.34C1262.76,1387.94,1259,1383.33,1259,1383.33Z" transform="translate(-208.41 -175.14)"/><path class="cls-14" d="M1130.66,1341.5l5.27,1.14s11.15-48.28,48.61-48.51a26.73,26.73,0,0,0-8.47-5.4C1162.35,1292.42,1138.51,1304.15,1130.66,1341.5Z" transform="translate(-208.41 -175.14)"/><path class="cls-11" d="M1314,1274.18l6.37-8.22s-1.59-2-4.84.39c-1.89,1.41-7,4.68-7,4.68Z" transform="translate(-208.41 -175.14)"/><g class="cls-26"><path class="cls-16" d="M1096.4,1729.2q-1.2,3.6-2.23,6.93a150.06,150.06,0,0,1-37.3-5.2c-2.12-.54-4.09-1.11-5.85-1.63.35-2.26.71-4.56,1.08-6.87C1062.1,1725.44,1078.89,1729.6,1096.4,1729.2Z" transform="translate(-208.41 -175.14)"/></g><g class="cls-26"><path class="cls-16" d="M1091.16,1746.21c-.67,2.41-1.28,4.7-1.85,6.86a155.47,155.47,0,0,1-33.89-5.13c-2.52-.67-4.8-1.33-6.83-1.93.32-2.23.64-4.53,1-6.9C1058.73,1741.91,1074.41,1746,1091.16,1746.21Z" transform="translate(-208.41 -175.14)"/></g><path class="cls-16" d="M1184.52,1731.86c-.15,2.46-.29,4.83-.4,7.11a151.86,151.86,0,0,1-35.25,2c-2.92-.15-5.56-.35-7.84-.56-.26-2.3-.54-4.62-.8-7C1149.77,1734.39,1167.06,1735.43,1184.52,1731.86Z" transform="translate(-208.41 -175.14)"/><path class="cls-16" d="M1183.64,1749.37c-.08,2.46-.16,4.8-.21,7a155.18,155.18,0,0,1-32.52,1.56c-2.88-.15-5.47-.34-7.73-.54-.32-2.26-.62-4.59-.93-7C1151.25,1751.27,1167.18,1752.25,1183.64,1749.37Z" transform="translate(-208.41 -175.14)"/><polygon class="cls-19" points="1659.74 1630.05 1702.44 1629.52 1802.18 1213.91 1759.48 1214.45 1659.74 1630.05"/><path class="cls-19" d="M1797.6,1814.44h191.51a20.28,20.28,0,0,0-20.29-20.29H1817.89a20.28,20.28,0,0,0-20.29,20.29Z" transform="translate(-208.41 -175.14)"/><polygon class="cls-9" points="2031.59 1446.88 2013.19 1354.65 2013.19 1354.65 2013.15 1354.46 1951.94 1047.56 1356.94 1047.64 1436.59 1446.96 1549.61 1446.94 1549.61 1446.94 1550.67 1446.94 1677.15 1446.93 1677.54 1446.93 1677.54 1446.93 1803.47 1446.91 1804.33 1446.91 1804.33 1446.91 1929.98 1446.89 1929.98 1446.89 1931.12 1446.89 1931.12 1446.89 2031.59 1446.88"/><polygon class="cls-14" points="2041.78 1438.98 1446.78 1439.07 1367.13 1047.64 1962.13 1047.56 2041.78 1438.98"/><polygon class="cls-3" points="1560.94 1439.05 1559.8 1439.05 1480.37 1048.68 1481.5 1048.68 1560.94 1439.05"/><polygon class="cls-3" points="1687.73 1439.03 1686.59 1439.03 1607.16 1048.66 1608.3 1048.66 1687.73 1439.03"/><polygon class="cls-3" points="1814.52 1439.01 1813.38 1439.01 1733.95 1048.64 1735.09 1048.64 1814.52 1439.01"/><polygon class="cls-3" points="1941.31 1438.99 1940.17 1438.99 1860.74 1048.63 1861.88 1048.63 1941.31 1438.99"/><polygon class="cls-3" points="1981.03 1140.45 1386.04 1140.54 1385.82 1139.47 1980.81 1139.38 1981.03 1140.45"/><polygon class="cls-3" points="2002.21 1244.52 1407.21 1244.6 1407 1243.53 2001.99 1243.45 2002.21 1244.52"/><polygon class="cls-3" points="2023.38 1348.58 1428.39 1348.67 1428.17 1347.6 2023.16 1347.51 2023.38 1348.58"/><polygon class="cls-3" points="1501.86 1151.49 1487.27 1139.99 1497.17 1128.48 1511.76 1139.98 1501.86 1151.49"/><polygon class="cls-3" points="1523.14 1256.09 1508.55 1244.59 1518.46 1233.08 1533.05 1244.58 1523.14 1256.09"/><polygon class="cls-3" points="1629.22 1151.47 1614.63 1139.97 1624.53 1128.46 1639.12 1139.97 1629.22 1151.47"/><polygon class="cls-3" points="1650.5 1256.07 1635.91 1244.57 1645.82 1233.06 1660.41 1244.57 1650.5 1256.07"/><polygon class="cls-3" points="1756.01 1151.45 1741.42 1139.95 1751.33 1128.44 1765.91 1139.95 1756.01 1151.45"/><polygon class="cls-3" points="1881.66 1151.44 1867.07 1139.93 1876.98 1128.42 1891.57 1139.93 1881.66 1151.44"/><polygon class="cls-3" points="1544.21 1359.62 1529.62 1348.12 1539.53 1336.61 1554.12 1348.11 1544.21 1359.62"/><polygon class="cls-3" points="1671.57 1359.6 1656.98 1348.1 1666.88 1336.59 1681.47 1348.1 1671.57 1359.6"/><polygon class="cls-3" points="1798.36 1359.59 1783.77 1348.08 1793.68 1336.57 1808.27 1348.08 1798.36 1359.59"/><polygon class="cls-3" points="1924.01 1359.57 1909.42 1348.06 1919.33 1336.56 1933.92 1348.06 1924.01 1359.57"/><polygon class="cls-3" points="1902.94 1256.04 1888.36 1244.53 1898.26 1233.03 1912.85 1244.53 1902.94 1256.04"/><polygon class="cls-3" points="1777.29 1256.06 1762.7 1244.55 1772.61 1233.04 1787.2 1244.55 1777.29 1256.06"/><rect class="cls-7" x="2049.12" y="1337.14" width="7.25" height="38.43" transform="translate(-476.91 365.56) rotate(-14.09)"/><path class="cls-7" d="M2050.52,1324.74s0,0,0,0c.35,2.88-.48,6-3.2,7-3.63,1.36-6.09-1-7-4.66,0,0-.23-.93-.24-.95-.31-1.28-3.27-.23-3.7,1a10.46,10.46,0,1,0,17.74-3.5C2053.09,1322.49,2050.31,1323.19,2050.52,1324.74Z" transform="translate(-208.41 -175.14)"/><path class="cls-7" d="M2054.09,1388.73v0c-.35-2.87.48-6,3.2-7,3.63-1.36,6.09,1,7,4.65,0,0,.23.94.24,1,.3,1.28,3.27.24,3.7-1a10.46,10.46,0,1,0-20-.85,10.29,10.29,0,0,0,2.29,4.35C2051.53,1391,2054.3,1390.28,2054.09,1388.73Z" transform="translate(-208.41 -175.14)"/><path class="cls-11" d="M2037.36,1243.29s-7.13-14.79-12.9-19.38-21.21-3.48-21.8-2.3c-1.84,3.64,12.38,9.3,14,12.64s-5.18,3,.06,8.8c4.41,4.9,15,9.58,15,9.58Z" transform="translate(-208.41 -175.14)"/><path class="cls-4" d="M2031.2,1241.6c3.75-5.83,4.87-6.13,4.87-6.13s61.93,24.7,67.84,26.76,94.26,7.26,94.26,7.26l26.67,58.61s-117.75-26.85-132.62-32.37c-24.58-9.12-64-44.85-64-44.85A19.29,19.29,0,0,1,2031.2,1241.6Z" transform="translate(-208.41 -175.14)"/><path class="cls-11" d="M2021.93,1239a5.63,5.63,0,0,0-.73-6.75c-2.22-2.63-2.72,2.37-6.51,1.12-3.14-1-11.6-2.3-6.13,2.11,5,4.06,10,9.51,11.86,10.78S2021.93,1239,2021.93,1239Z" transform="translate(-208.41 -175.14)"/><path class="cls-24" d="M2185.05,1789.61s-1.34,21.74-5.38,26.85h-62.12c.39-2.17,2.15-7.52,9.92-8.88,9.81-1.7,26.24-8.6,32.18-21.57C2165.91,1772.36,2185.05,1789.61,2185.05,1789.61Z" transform="translate(-208.41 -175.14)"/><path class="cls-24" d="M2295.29,1786.58s4.1,27.06-1.22,27.55c-.71.06-25.59,0-32.36,1-11,1.65-29.47.21-29.47.21a2.92,2.92,0,0,1-2.65-4.39c1.29-2.18,3.75-4.51,8.44-5.41,9.79-1.89,26.09-9.07,31.8-22.15C2275.85,1769.67,2295.29,1786.58,2295.29,1786.58Z" transform="translate(-208.41 -175.14)"/><path class="cls-23" d="M2295.29,1786.58a59.9,59.9,0,0,1-14.87,3,45,45,0,0,1-13.65-.86,20.43,20.43,0,0,1-2.31-.66s-1.06-13.2-9.57-41c-.64-2.1-1.32-4.3-2.06-6.58q-1.42-4.48-3.12-9.38c-.73-2.14-1.49-4.34-2.3-6.59-7.08-19.9-17.08-44.66-31.18-74.55q-7-14.85-13.07-28.35c-34.79-77.37-47.32-121.23-47.32-121.23l1.52-.9,61.72-36.75,10.37-6.17h0l16.33-9.73s.23,7,.85,18.3c0,.16,0,.32,0,.49,2.06,38,8.39,123.48,24.58,160.18,9.86,22.31,15.75,58.78,19.23,91.34.24,2.29.48,4.58.7,6.82q.51,5.12.93,10c.21,2.3.4,4.59.57,6.81C2294.78,1767,2295.29,1786.58,2295.29,1786.58Z" transform="translate(-208.41 -175.14)"/><path class="cls-10" d="M2232.57,1456.57s-1,3.73-2.69,10.18c-3.69,14.28-10.54,41.89-16.38,71.74-5.65,28.94-10.37,60-10.34,83a124.08,124.08,0,0,0,.7,13.52c2.84,24.57-.33,60.74-4.47,92.07-.32,2.31-.63,4.61-.95,6.88-.48,3.44-1,6.81-1.46,10.07-.35,2.33-.69,4.61-1,6.82-3.66,23.39-7,40.12-7,40.12s-1.46.33-4,.74a140.86,140.86,0,0,1-16.75,1.73c-4.15.18-8.7-1.29-11.53-2.42-1.69-.67-2.76-1.22-2.76-1.22s1.44-12.72.49-40.58c0-1.09-.08-2.2-.13-3.33l-.14-3.48c-.14-3.07-.29-6.29-.5-9.67-.12-2.21-.26-4.48-.41-6.83-1.45-21.87-4.14-49.72-9-84.12a1417.52,1417.52,0,0,1-13.31-169.4c-.19-12.27-.09-19.15-.09-19.15l3.32.11,4.13.13,66.75,2.16,24.48.8h0Z" transform="translate(-208.41 -175.14)"/><path class="cls-11" d="M2200,1255.22l-16.54,12.25-23.91-5c.33-2.18,1.91-11.21,3.35-19.39.09-.49.17-1,.25-1.44,1.23-7,2.3-12.95,2.3-12.95l22.33-11.13,8.32-4.14c0,.14-.65,7.72-.73,8.83C2193.78,1241.86,2200,1255.22,2200,1255.22Z" transform="translate(-208.41 -175.14)"/><path class="cls-4" d="M2161.2,1249c.52-.23,32.51-9.67,36-8.52s5.53,7.87,5.53,7.87l-49.39,14.07S2154.51,1251.85,2161.2,1249Z" transform="translate(-208.41 -175.14)"/><path class="cls-7" d="M2247.35,1463.71c-5.41,24.74-118.49-52.88-117-68,.17-1.66.33-3.33.5-5,2.08-21,4.09-41.59,4.22-55a189.34,189.34,0,0,1,3.86-34.37c2-10,4.38-19,6.48-26.11a28.8,28.8,0,0,1,16.92-18.53,23.22,23.22,0,0,1,2.8-1c13.62-4,32.46-8.84,37.57-7.35,13.84,4.07,24.12,28.43,31.4,59.48C2247.74,1366,2250.89,1447.6,2247.35,1463.71Z" transform="translate(-208.41 -175.14)"/><path class="cls-25" d="M2193.66,1222.56c-4.9,9.38-23.17,17.49-30.79,20.48.09-.49.17-1,.25-1.44,1.23-7,2.3-12.95,2.3-12.95l22.33-11.13C2192.68,1217.45,2195.68,1218.7,2193.66,1222.56Z" transform="translate(-208.41 -175.14)"/><path class="cls-11" d="M2154.57,1227.35s40.28,12.56,47.72-12.64,17.65-40.56-7.76-49.65-33.26-1-37.79,6.86S2144.28,1223.43,2154.57,1227.35Z" transform="translate(-208.41 -175.14)"/><path class="cls-10" d="M2158.32,1169.49s2.57,29.33,8.64,28,11.56-2.21,10.68,6.63-9.3,19,9.39,20.61,45.57-46.64,40.43-55.77C2212.65,1142.67,2136.91,1137.36,2158.32,1169.49Z" transform="translate(-208.41 -175.14)"/><path class="cls-4" d="M2133.78,1453.27c11.2,4-.19-11.13,0-14.29.87-13.91-4.58-31.5-2.91-48.24l68.39-40.88S2215.48,1452.62,2133.78,1453.27Z" transform="translate(-208.41 -175.14)"/><path class="cls-10" d="M2247.35,1463.71c-29.2,54.11-33.85,74.78-33.85,74.78-25.41-2.9-68.95-52.86-82.76-66.19,0,0-1.88-61.47-.37-76.57l21.11-.61s38.15,9.67,48-3.45,5.6-77.53,5.6-77.53l29-6.27C2247.74,1366,2255.19,1449.19,2247.35,1463.71Z" transform="translate(-208.41 -175.14)"/><path class="cls-11" d="M2074.12,1360s-13.9-9.4-16.54-10.22-11.28-1.71-11.68-1-1.58,2.76-.07,3.47,3.39.46,2.82,1-6.24-2.21-7.55.69-2.47,12.82,4.2,15.83,23.12.29,24.31.64C2079.67,1373.28,2074.12,1360,2074.12,1360Z" transform="translate(-208.41 -175.14)"/><path class="cls-7" d="M2074,1357.48s67.83,11.54,73.84,8.61c9.59-4.67-3.73-73.49-3.73-73.49s-.57-15.6,17.65-19.28c15.83-3.19,31.11,8.67,31.11,8.67s13.89,12.43,12.11,26.21c-3.93,30.56-10,92.72-30.49,102.25-26.37,12.29-102.66-34.08-102.66-34.08s-2.54-3.11-2.17-8.89C2070,1362.39,2074,1357.48,2074,1357.48Z" transform="translate(-208.41 -175.14)"/><path class="cls-22" d="M2210.75,1312.92l-5.63,1.22s-11.87-51.43-51.79-51.68a28.54,28.54,0,0,1,9-5.74C2177,1260.64,2202.38,1273.14,2210.75,1312.92Z" transform="translate(-208.41 -175.14)"/><path class="cls-16" d="M2199.39,1727.11c-.32,2.31-.63,4.61-.95,6.88-13.69,1.93-27,1.13-37-.07-3-.37-5.63-.78-7.9-1.15-.12-2.21-.26-4.48-.41-6.83C2162.69,1727.6,2181,1730.08,2199.39,1727.11Z" transform="translate(-208.41 -175.14)"/><path class="cls-16" d="M2154.07,1742.44l.14,3.48.13,3.33c2.29.37,4.94.77,7.94,1.14a147.36,147.36,0,0,0,33.67.49c.34-2.21.68-4.49,1-6.82C2179.77,1746.27,2163.07,1744,2154.07,1742.44Z" transform="translate(-208.41 -175.14)"/><g class="cls-26"><path class="cls-16" d="M2291.17,1723.87a146.08,146.08,0,0,1-35.41,6.79c-2.18.17-4.21.26-6.05.35-.73-2.14-1.49-4.34-2.3-6.59,9.72-.29,26.72-1.54,43.06-7.37C2290.71,1719.34,2291,1721.63,2291.17,1723.87Z" transform="translate(-208.41 -175.14)"/></g><g class="cls-26"><path class="cls-16" d="M2292.67,1740.68a147.86,147.86,0,0,1-32.91,6c-1.73.14-3.36.23-4.87.31-.64-2.1-1.32-4.3-2.06-6.58,9.4-.37,24.45-1.63,39.27-6.52C2292.31,1736.17,2292.5,1738.46,2292.67,1740.68Z" transform="translate(-208.41 -175.14)"/></g><path class="cls-11" d="M633.68,1487.48s5.3-8.07,9-10.3,12.64-.38,12.89.36c.79,2.26-7.94,4.46-9.16,6.28s2.79,2.15-.72,5.13c-3,2.52-9.48,4.42-9.48,4.42Z" transform="translate(-208.41 -175.14)"/><path class="cls-4" d="M637.4,1487c-1.73-3.69-2.36-4-2.36-4s-38,9.6-41.66,10.35-55.55-3.1-55.55-3.1l-20.11,32.12s70.77-6.51,79.88-8.58c15-3.41,40.82-21.19,40.82-21.19A11.35,11.35,0,0,0,637.4,1487Z" transform="translate(-208.41 -175.14)"/><path class="cls-11" d="M643,1486.18s2.12-2,4.16-3.8c1.5-1.37,2.56-3.25,3.21-3.77,1.52-1.22,2.23,2.09-.28,5.82a21.28,21.28,0,0,1-6.77,6.1C642.14,1491.12,643,1486.18,643,1486.18Z" transform="translate(-208.41 -175.14)"/><polygon class="cls-19" points="533.67 1634.69 558.8 1634.38 617.5 1389.8 592.36 1390.11 533.67 1634.69"/><path class="cls-19" d="M700.56,1815.27H813.27a12,12,0,0,0-11.94-11.94H712.5a12,12,0,0,0-11.94,11.94Z" transform="translate(-208.41 -175.14)"/><polygon class="cls-9" points="752.5 1526.89 741.67 1472.62 741.67 1472.62 741.65 1472.51 705.62 1291.9 355.48 1291.95 402.35 1526.94 468.86 1526.93 468.86 1526.93 469.48 1526.93 543.92 1526.92 544.14 1526.92 544.14 1526.92 618.25 1526.91 618.76 1526.91 618.76 1526.91 692.7 1526.9 692.7 1526.9 693.37 1526.9 693.37 1526.9 752.5 1526.89"/><polygon class="cls-14" points="758.49 1522.25 408.35 1522.3 361.48 1291.95 711.62 1291.9 758.49 1522.25"/><polygon class="cls-3" points="475.53 1522.29 474.86 1522.29 428.11 1292.56 428.78 1292.56 475.53 1522.29"/><polygon class="cls-3" points="550.14 1522.28 549.47 1522.28 502.73 1292.55 503.39 1292.55 550.14 1522.28"/><polygon class="cls-3" points="624.76 1522.27 624.09 1522.27 577.34 1292.54 578.01 1292.54 624.76 1522.27"/><polygon class="cls-3" points="699.37 1522.26 698.7 1522.26 651.96 1292.53 652.63 1292.53 699.37 1522.26"/><polygon class="cls-3" points="722.74 1346.57 372.6 1346.62 372.47 1345.99 722.62 1345.94 722.74 1346.57"/><polygon class="cls-3" points="735.21 1407.81 385.06 1407.86 384.93 1407.23 735.08 1407.18 735.21 1407.81"/><polygon class="cls-3" points="747.67 1469.05 397.52 1469.1 397.39 1468.47 747.54 1468.42 747.67 1469.05"/><polygon class="cls-3" points="440.76 1353.06 432.17 1346.29 438 1339.52 446.59 1346.29 440.76 1353.06"/><polygon class="cls-3" points="453.28 1414.62 444.7 1407.85 450.53 1401.08 459.11 1407.85 453.28 1414.62"/><polygon class="cls-3" points="515.71 1353.05 507.12 1346.28 512.95 1339.51 521.54 1346.28 515.71 1353.05"/><polygon class="cls-3" points="528.23 1414.61 519.65 1407.84 525.48 1401.07 534.06 1407.84 528.23 1414.61"/><polygon class="cls-3" points="590.32 1353.04 581.74 1346.27 587.57 1339.5 596.15 1346.27 590.32 1353.04"/><polygon class="cls-3" points="664.27 1353.03 655.68 1346.26 661.51 1339.49 670.1 1346.26 664.27 1353.03"/><polygon class="cls-3" points="465.68 1475.55 457.09 1468.78 462.92 1462 471.51 1468.77 465.68 1475.55"/><polygon class="cls-3" points="540.63 1475.54 532.04 1468.76 537.87 1461.99 546.46 1468.76 540.63 1475.54"/><polygon class="cls-3" points="615.25 1475.52 606.66 1468.75 612.49 1461.98 621.08 1468.75 615.25 1475.52"/><polygon class="cls-3" points="689.19 1475.51 680.6 1468.74 686.43 1461.97 695.02 1468.74 689.19 1475.51"/><polygon class="cls-3" points="676.79 1414.59 668.21 1407.82 674.04 1401.05 682.62 1407.82 676.79 1414.59"/><polygon class="cls-3" points="602.85 1414.6 594.26 1407.83 600.09 1401.06 608.68 1407.83 602.85 1414.6"/><rect class="cls-7" x="618.78" y="1534.38" width="4.27" height="22.62" transform="translate(638.29 3020.93) rotate(-165.9)"/><path class="cls-7" d="M622.22,1527.09v0c-.2,1.69.28,3.51,1.88,4.11,2.14.8,3.59-.59,4.13-2.74l.14-.56c.18-.75,1.92-.14,2.18.59a6.15,6.15,0,1,1-11.79.51,6.11,6.11,0,0,1,1.35-2.57C620.71,1525.76,622.35,1526.18,622.22,1527.09Z" transform="translate(-208.41 -175.14)"/><path class="cls-7" d="M620.12,1564.75v0c.2-1.7-.29-3.52-1.89-4.12-2.13-.8-3.58.59-4.12,2.74l-.14.56c-.18.76-1.93.14-2.18-.59a6.16,6.16,0,1,1,10.44,2.06C621.63,1566.07,620,1565.66,620.12,1564.75Z" transform="translate(-208.41 -175.14)"/><path class="cls-24" d="M543.05,1800.66s.8,12.79,3.17,15.8h36.56c-.23-1.28-1.27-4.42-5.84-5.22-5.77-1-15.44-5.07-18.94-12.7C554.32,1790.51,543.05,1800.66,543.05,1800.66Z" transform="translate(-208.41 -175.14)"/><path class="cls-24" d="M478.18,1798.87s-2.41,15.93.72,16.22c.42,0,15.06,0,19,.61,6.5,1,17.35.12,17.35.12a1.71,1.71,0,0,0,1.55-2.58,6.9,6.9,0,0,0-5-3.19c-5.76-1.11-15.35-5.34-18.72-13C489.62,1788.92,478.18,1798.87,478.18,1798.87Z" transform="translate(-208.41 -175.14)"/><path class="cls-23" d="M560.25,1630.4s-9.2,32.17-35.54,88a481,481,0,0,0-18.7,44.86c-.5,1.38-1,2.72-1.4,4-.7,2.06-1.33,4-1.92,5.88-.44,1.37-.84,2.69-1.22,4-4.56,15.3-5.14,22.58-5.14,22.58a25,25,0,0,1-9.55,1.31,32,32,0,0,1-8.6-2.16s.26-10.38,1.36-24.68c.1-1.3.2-2.62.31-4q.22-2.78.5-5.69c.12-1.32.26-2.65.38-4,2-19.79,5.53-42.6,11.6-56.33,12.45-28.19,15-105.33,15-105.33Z" transform="translate(-208.41 -175.14)"/><path class="cls-10" d="M567.11,1713.68c-3.17,22.56-4.78,40.32-5.54,53.77-.09,1.39-.15,2.74-.21,4-.1,2.1-.17,4.07-.25,5.92,0,1.4-.07,2.73-.1,4a167.77,167.77,0,0,0,.41,19.38,30.8,30.8,0,0,1-9.78,1.67,53,53,0,0,1-10.86-1s-1.6-7.93-3.49-19.52h0c-.21-1.3-.42-2.64-.63-4q-.43-2.78-.86-5.72c-.2-1.31-.39-2.64-.59-4-2.71-19.34-5-42.89-3.22-58.51,3.53-30.61-16.89-105-16.89-105l59.9-1.94A802,802,0,0,1,567.11,1713.68Z" transform="translate(-208.41 -175.14)"/><path class="cls-11" d="M534.28,1486.18l9.73,7.2,14.07-3c-.2-1.28-1.12-6.6-2-11.41l-.15-.85c-.72-4.1-1.35-7.62-1.35-7.62L541.47,1464l-4.9-2.44c0,.09.38,4.55.43,5.2C537.92,1478.32,534.28,1486.18,534.28,1486.18Z" transform="translate(-208.41 -175.14)"/><path class="cls-4" d="M557.1,1482.54c-.31-.13-19.14-5.69-21.19-5s-3.25,4.63-3.25,4.63l29.07,8.28S561,1484.19,557.1,1482.54Z" transform="translate(-208.41 -175.14)"/><path class="cls-7" d="M506.39,1608.87c3.19,14.56,69.73-31.12,68.85-40l-.3-2.94c-1.23-12.37-2.4-24.47-2.48-32.38a111.85,111.85,0,0,0-2.27-20.22c-1.16-5.88-2.58-11.21-3.81-15.36a17,17,0,0,0-10-10.91,14,14,0,0,0-1.65-.58c-8-2.32-19.11-5.2-22.11-4.32-8.15,2.39-14.2,16.73-18.48,35C506.17,1551.36,504.31,1599.39,506.39,1608.87Z" transform="translate(-208.41 -175.14)"/><path class="cls-25" d="M538,1467c2.88,5.52,13.64,10.29,18.12,12l-.15-.85c-.72-4.1-1.35-7.62-1.35-7.62L541.47,1464C538.57,1464,536.8,1464.68,538,1467Z" transform="translate(-208.41 -175.14)"/><path class="cls-11" d="M561,1469.77s-23.71,7.4-28.09-7.43-10.38-23.87,4.57-29.22,19.57-.56,22.24,4S567.05,1467.47,561,1469.77Z" transform="translate(-208.41 -175.14)"/><path class="cls-14" d="M558.79,1435.72s-1.52,17.27-5.09,16.52-6.06-1.33-6.28,3.89c-.23,5.42,1,11.66-10,12.58s-22.3-27.89-19.28-33.27C526.82,1419.94,571.39,1416.82,558.79,1435.72Z" transform="translate(-208.41 -175.14)"/><path class="cls-4" d="M573.23,1602.73c-6.59,2.38.11-6.55,0-8.41-.51-8.19,2.7-18.54,1.71-28.39l-40.24-24.06S525.15,1602.34,573.23,1602.73Z" transform="translate(-208.41 -175.14)"/><path class="cls-10" d="M506.39,1608.87c17.19,31.85,19.92,44,19.92,44,15-1.71,40.58-31.11,48.71-39,0,0,1.1-36.18.22-45.06l-12.43-.36s-22.45,5.69-28.27-2-3.3-45.63-3.3-45.63l-17.06-3.69C506.17,1551.36,501.78,1600.33,506.39,1608.87Z" transform="translate(-208.41 -175.14)"/><path class="cls-11" d="M608.34,1547.85s8.18-5.53,9.73-6,6.64-1,6.87-.6.94,1.62,0,2-2,.27-1.67.56,3.68-1.3,4.45.4,1.45,7.55-2.47,9.32-13.61.17-14.31.37C605.07,1555.65,608.34,1547.85,608.34,1547.85Z" transform="translate(-208.41 -175.14)"/><path class="cls-7" d="M608.42,1546.36s-39.92,6.78-43.46,5.06c-5.64-2.75,2.19-43.25,2.19-43.25s.34-9.17-10.38-11.34c-9.32-1.88-18.31,5.1-18.31,5.1s-8.17,7.31-7.13,15.43c2.32,18,5.92,54.56,17.95,60.17,15.51,7.23,60.41-20.06,60.41-20.06a7.87,7.87,0,0,0,1.28-5.23A12.25,12.25,0,0,0,608.42,1546.36Z" transform="translate(-208.41 -175.14)"/><path class="cls-22" d="M527.93,1520.13l3.31.72s7-30.26,30.49-30.41a16.87,16.87,0,0,0-5.31-3.38C547.81,1489.37,532.86,1496.72,527.93,1520.13Z" transform="translate(-208.41 -175.14)"/><path class="cls-16" d="M561.57,1767.45c-.09,1.39-.15,2.74-.21,4a89.74,89.74,0,0,1-21.94,1c-1.32-.09-2.53-.2-3.62-.32-.2-1.31-.39-2.64-.59-4C541.14,1768.84,551.37,1769.51,561.57,1767.45Z" transform="translate(-208.41 -175.14)"/><path class="cls-16" d="M561.11,1777.42c0,1.4-.07,2.73-.1,4a90,90,0,0,1-20.56.79c-1.13-.07-2.18-.16-3.16-.25h0c-.21-1.3-.42-2.64-.63-4A91,91,0,0,0,561.11,1777.42Z" transform="translate(-208.41 -175.14)"/><g class="cls-26"><path class="cls-16" d="M506,1763.28c-.5,1.38-1,2.72-1.4,4a90.29,90.29,0,0,1-20.63-2q-2-.42-3.63-.81c.12-1.32.26-2.65.38-4A89.13,89.13,0,0,0,506,1763.28Z" transform="translate(-208.41 -175.14)"/></g><g class="cls-26"><path class="cls-16" d="M502.69,1773.18c-.44,1.37-.84,2.69-1.22,4a94,94,0,0,1-17.76-2c-1.55-.33-2.95-.65-4.17-1,.1-1.3.2-2.62.31-4A94,94,0,0,0,502.69,1773.18Z" transform="translate(-208.41 -175.14)"/></g><path class="cls-7" d="M2526.74,948.56c-32.76-4.88-69.14-27.16-108.11-66.22-31.13-31.2-64-73.13-97.67-124.63-55.41-84.71-95-168-97.93-174.3-39.92,1-90.75-12.24-151-39.36-48.33-21.75-102.83-52.44-162-91.2a2134,2134,0,0,1-181.84-134.12l.8-1a2135.29,2135.29,0,0,0,181.74,134c59.09,38.73,113.53,69.38,161.79,91.11,60.29,27.13,111.06,40.34,150.86,39.23h.41l.18.37c.4.86,40.73,87,98,174.53,33.63,51.42,66.44,93.28,97.51,124.42,38.78,38.87,74.91,61,107.41,65.87Z" transform="translate(-208.41 -175.14)"/><path class="cls-7" d="M2328.38,934.19c-42.78-6.57-89.06-29.79-137.56-69-38.76-31.34-79-72.93-119.67-123.59C2004,657.88,1957.81,576.46,1954.72,571A882.17,882.17,0,0,1,1718.22,515,893.89,893.89,0,0,1,1545,424.7c-74-49.54-125.58-100.86-142.51-121.08l1-.8c16.91,20.17,68.4,71.41,142.29,120.87a893.51,893.51,0,0,0,173,90.19,881.13,881.13,0,0,0,236.46,55.88l.33,0,.16.29c.47.84,47.36,84.57,116.49,170.74,40.58,50.59,80.78,92.11,119.48,123.4,48.31,39.07,94.39,62.2,137,68.74Z" transform="translate(-208.41 -175.14)"/><path class="cls-7" d="M2153.22,948.57c-57.31-1.85-117.46-22.88-178.8-62.51-49-31.68-98.93-75.25-148.31-129.51-81.65-89.72-135-179.64-138.53-185.55-54.94-1.5-121.11-16.46-196.66-44.45-60.55-22.43-127.23-53.24-198.19-91.58-120.82-65.26-213.4-130.59-214.33-131.24l.73-1c.92.65,93.45,65.94,214.2,131.17,70.91,38.3,137.54,69.09,198,91.5,75.58,28,141.73,42.93,196.6,44.38h.35l.18.3c.53.92,54.59,93.39,138.56,185.66,49.3,54.17,99.12,97.67,148.06,129.29,61.14,39.5,121.08,60.46,178.15,62.3Z" transform="translate(-208.41 -175.14)"/><rect class="cls-27" x="17.43" y="1637" width="2611.15" height="6.45" rx="2.86"/></svg>